<mxfile host="65bd71144e">
    <diagram id="H-iJ1k2l3m4n5o6p" name="Page-1">
        <mxGraphModel dx="2511" dy="1256" grid="1" gridSize="10" guides="1" tooltips="1" connect="1" arrows="1" fold="1" page="1" pageScale="1" pageWidth="827" pageHeight="1654" math="0" shadow="0">
            <root>
                <mxCell id="0"/>
                <mxCell id="1" parent="0"/>
                <mxCell id="2" value="开始：调用 run_maintenance()" style="ellipse;whiteSpace=wrap;html=1;fillColor=#dae8fc;strokeColor=#6c8ebf;fontStyle=1;sketch=1;curveFitting=1;jiggle=2;" parent="1" vertex="1">
                    <mxGeometry x="314" y="40" width="200" height="80" as="geometry"/>
                </mxCell>
                <mxCell id="3" value="" style="endArrow=classic;html=1;rounded=0;sketch=1;curveFitting=1;jiggle=2;" parent="1" source="2" edge="1">
                    <mxGeometry width="50" height="50" relative="1" as="geometry">
                        <mxPoint x="414" y="140" as="sourcePoint"/>
                        <mxPoint x="414" y="160" as="targetPoint"/>
                    </mxGeometry>
                </mxCell>
                <mxCell id="4" value="" style="rounded=1;whiteSpace=wrap;html=1;fillColor=#d5e8d4;strokeColor=#82b366;fontStyle=1;fontSize=14;arcSize=12;sketch=1;curveFitting=1;jiggle=2;" parent="1" vertex="1">
                    <mxGeometry x="224" y="160" width="380" height="480" as="geometry"/>
                </mxCell>
                <mxCell id="5" value="1. 筛选高 Importance 记忆&lt;br&gt;[VectorDB Query]" style="rounded=1;whiteSpace=wrap;html=1;fillColor=#eaf2e9;strokeColor=#96c480;sketch=1;curveFitting=1;jiggle=2;" parent="1" vertex="1">
                    <mxGeometry x="324" y="210" width="180" height="60" as="geometry"/>
                </mxCell>
                <mxCell id="6" value="2. 主题聚类 (Clustering)" style="rounded=1;whiteSpace=wrap;html=1;fillColor=#eaf2e9;strokeColor=#96c480;sketch=1;curveFitting=1;jiggle=2;" parent="1" vertex="1">
                    <mxGeometry x="324" y="310" width="180" height="60" as="geometry"/>
                </mxCell>
                <mxCell id="7" value="" style="endArrow=classic;html=1;rounded=0;sketch=1;curveFitting=1;jiggle=2;" parent="1" source="5" target="6" edge="1">
                    <mxGeometry width="50" height="50" relative="1" as="geometry">
                        <mxPoint x="404" y="290" as="sourcePoint"/>
                        <mxPoint x="454" y="240" as="targetPoint"/>
                    </mxGeometry>
                </mxCell>
                <mxCell id="8" value="3. 知识升华 (Sublimation)&lt;br&gt;[LLM Call]" style="rounded=1;whiteSpace=wrap;html=1;fillColor=#eaf2e9;strokeColor=#96c480;sketch=1;curveFitting=1;jiggle=2;" parent="1" vertex="1">
                    <mxGeometry x="324" y="410" width="180" height="60" as="geometry"/>
                </mxCell>
                <mxCell id="9" value="" style="endArrow=classic;html=1;rounded=0;sketch=1;curveFitting=1;jiggle=2;" parent="1" source="6" target="8" edge="1">
                    <mxGeometry width="50" height="50" relative="1" as="geometry">
                        <mxPoint x="404" y="390" as="sourcePoint"/>
                        <mxPoint x="454" y="340" as="targetPoint"/>
                    </mxGeometry>
                </mxCell>
                <mxCell id="10" value="4. 知识固化 (Crystallization)&lt;br&gt;[GraphDB Write]" style="shape=cylinder3;whiteSpace=wrap;html=1;boundedLbl=1;backgroundOutline=1;size=15;fillColor=#eaf2e9;strokeColor=#96c480;sketch=1;curveFitting=1;jiggle=2;" parent="1" vertex="1">
                    <mxGeometry x="324" y="510" width="180" height="80" as="geometry"/>
                </mxCell>
                <mxCell id="11" value="" style="endArrow=classic;html=1;rounded=0;sketch=1;curveFitting=1;jiggle=2;" parent="1" source="8" target="10" edge="1">
                    <mxGeometry width="50" height="50" relative="1" as="geometry">
                        <mxPoint x="404" y="490" as="sourcePoint"/>
                        <mxPoint x="454" y="440" as="targetPoint"/>
                    </mxGeometry>
                </mxCell>
                <mxCell id="12" value="" style="endArrow=classic;html=1;rounded=0;sketch=1;curveFitting=1;jiggle=2;" parent="1" source="4" target="13" edge="1">
                    <mxGeometry width="50" height="50" relative="1" as="geometry">
                        <mxPoint x="414" y="660" as="sourcePoint"/>
                        <mxPoint x="414" y="680" as="targetPoint"/>
                    </mxGeometry>
                </mxCell>
                <mxCell id="13" value="" style="rounded=1;whiteSpace=wrap;html=1;fillColor=#f8cecc;strokeColor=#b85450;fontStyle=1;fontSize=14;arcSize=12;sketch=1;curveFitting=1;jiggle=2;" parent="1" vertex="1">
                    <mxGeometry x="224" y="680" width="380" height="560" as="geometry"/>
                </mxCell>
                <mxCell id="14" value="5. 筛选陈旧/低价值记忆&lt;br&gt;[VectorDB Query]" style="rounded=1;whiteSpace=wrap;html=1;fillColor=#fde9e8;strokeColor=#e5a6a3;sketch=1;curveFitting=1;jiggle=2;" parent="1" vertex="1">
                    <mxGeometry x="324" y="730" width="180" height="60" as="geometry"/>
                </mxCell>
                <mxCell id="15" value="6. 固化 (Consolidation)&lt;br&gt;合并相似记忆" style="rounded=1;whiteSpace=wrap;html=1;fillColor=#fde9e8;strokeColor=#e5a6a3;sketch=1;curveFitting=1;jiggle=2;" parent="1" vertex="1">
                    <mxGeometry x="324" y="830" width="180" height="60" as="geometry"/>
                </mxCell>
                <mxCell id="16" value="" style="endArrow=classic;html=1;rounded=0;sketch=1;curveFitting=1;jiggle=2;" parent="1" source="14" target="15" edge="1">
                    <mxGeometry width="50" height="50" relative="1" as="geometry">
                        <mxPoint x="404" y="810" as="sourcePoint"/>
                        <mxPoint x="454" y="760" as="targetPoint"/>
                    </mxGeometry>
                </mxCell>
                <mxCell id="17" value="7. 压缩 (Compression)&lt;br&gt;压缩冷数据内容" style="rounded=1;whiteSpace=wrap;html=1;fillColor=#fde9e8;strokeColor=#e5a6a3;sketch=1;curveFitting=1;jiggle=2;" parent="1" vertex="1">
                    <mxGeometry x="324" y="940" width="180" height="60" as="geometry"/>
                </mxCell>
                <mxCell id="18" value="" style="endArrow=classic;html=1;rounded=0;sketch=1;curveFitting=1;jiggle=2;" parent="1" source="15" target="17" edge="1">
                    <mxGeometry width="50" height="50" relative="1" as="geometry">
                        <mxPoint x="404" y="910" as="sourcePoint"/>
                        <mxPoint x="454" y="860" as="targetPoint"/>
                    </mxGeometry>
                </mxCell>
                <mxCell id="19" value="8. 归档 (Archiving)&lt;br&gt;迁移到冷存储" style="rounded=1;whiteSpace=wrap;html=1;fillColor=#fde9e8;strokeColor=#e5a6a3;sketch=1;curveFitting=1;jiggle=2;" parent="1" vertex="1">
                    <mxGeometry x="324" y="1030" width="180" height="60" as="geometry"/>
                </mxCell>
                <mxCell id="20" value="" style="endArrow=classic;html=1;rounded=0;sketch=1;curveFitting=1;jiggle=2;" parent="1" source="17" target="19" edge="1">
                    <mxGeometry width="50" height="50" relative="1" as="geometry">
                        <mxPoint x="404" y="1010" as="sourcePoint"/>
                        <mxPoint x="454" y="960" as="targetPoint"/>
                    </mxGeometry>
                </mxCell>
                <mxCell id="21" value="9. 删除 (Deletion)&lt;br&gt;物理删除无价值噪音" style="rounded=1;whiteSpace=wrap;html=1;fillColor=#fde9e8;strokeColor=#e5a6a3;sketch=1;curveFitting=1;jiggle=2;" parent="1" vertex="1">
                    <mxGeometry x="324" y="1130" width="180" height="60" as="geometry"/>
                </mxCell>
                <mxCell id="22" value="" style="endArrow=classic;html=1;rounded=0;sketch=1;curveFitting=1;jiggle=2;" parent="1" source="19" target="21" edge="1">
                    <mxGeometry width="50" height="50" relative="1" as="geometry">
                        <mxPoint x="404" y="1110" as="sourcePoint"/>
                        <mxPoint x="454" y="1060" as="targetPoint"/>
                    </mxGeometry>
                </mxCell>
                <mxCell id="23" value="结束" style="ellipse;whiteSpace=wrap;html=1;fillColor=#dae8fc;strokeColor=#6c8ebf;fontStyle=1;sketch=1;curveFitting=1;jiggle=2;" parent="1" vertex="1">
                    <mxGeometry x="374" y="1280" width="80" height="40" as="geometry"/>
                </mxCell>
                <mxCell id="24" value="" style="endArrow=classic;html=1;rounded=0;sketch=1;curveFitting=1;jiggle=2;" parent="1" source="13" target="23" edge="1">
                    <mxGeometry width="50" height="50" relative="1" as="geometry">
                        <mxPoint x="414" y="1260" as="sourcePoint"/>
                        <mxPoint x="414" y="1280" as="targetPoint"/>
                    </mxGeometry>
                </mxCell>
                <mxCell id="25" value="&lt;span style=&quot;color: rgb(0, 0, 0); font-size: 14px; font-weight: 700;&quot;&gt;阶段二：记忆维护 (系统健康)&lt;/span&gt;" style="text;html=1;align=center;verticalAlign=middle;whiteSpace=wrap;rounded=0;sketch=1;curveFitting=1;jiggle=2;" vertex="1" parent="1">
                    <mxGeometry y="940" width="200" height="30" as="geometry"/>
                </mxCell>
                <mxCell id="26" value="&lt;span style=&quot;color: rgb(0, 0, 0); font-size: 14px; font-weight: 700;&quot;&gt;阶段一：元认知反思 (知识增长)&lt;/span&gt;" style="text;html=1;align=center;verticalAlign=middle;whiteSpace=wrap;rounded=0;sketch=1;curveFitting=1;jiggle=2;" vertex="1" parent="1">
                    <mxGeometry x="-10" y="370" width="210" height="30" as="geometry"/>
                </mxCell>
            </root>
        </mxGraphModel>
    </diagram>
</mxfile>